<svg width="24" height="24" viewBox="0 0 24 24" fill="none" xmlns="http://www.w3.org/2000/svg">
<path d="M12 9.62936V12.8453M12 16.0612H12.008M10.6252 5.4969L3.81549 16.8652C3.67509 17.1083 3.6008 17.384 3.60001 17.6648C3.59923 17.9455 3.67197 18.2216 3.81101 18.4655C3.95004 18.7095 4.15053 18.9127 4.39251 19.0551C4.63449 19.1975 4.90954 19.274 5.19029 19.2771H18.8097C19.0905 19.274 19.3655 19.1975 19.6075 19.0551C19.8495 18.9127 20.05 18.7095 20.189 18.4655C20.328 18.2216 20.4008 17.9455 20.4 17.6648C20.3992 17.384 20.3249 17.1083 20.1845 16.8652L13.3748 5.4969C13.2315 5.26062 13.0297 5.06526 12.7889 4.92968C12.5481 4.7941 12.2764 4.72288 12 4.72288C11.7236 4.72288 11.452 4.7941 11.2111 4.92968C10.9703 5.06526 10.7685 5.26062 10.6252 5.4969Z" stroke="#140B1F" stroke-width="1.8" stroke-linecap="round" stroke-linejoin="round"/>
</svg>
