<svg width="24" height="24" viewBox="0 0 24 24" fill="none" xmlns="http://www.w3.org/2000/svg">
<path d="M18.9455 8.45413C18.7663 8.19109 18.49 8.01 18.1773 7.9507C17.8646 7.89141 17.5412 7.95875 17.2781 8.13793C17.0151 8.31711 16.834 8.59345 16.7747 8.90615C16.7154 9.21884 16.7827 9.54229 16.9619 9.80533C17.7151 10.9132 18.0758 12.2412 17.9866 13.5779C17.8974 14.9146 17.3635 16.1829 16.4699 17.1809C15.5763 18.179 14.3744 18.8492 13.0556 19.0849C11.7369 19.3206 10.3772 19.1083 9.19323 18.4816C8.00921 17.855 7.06896 16.8501 6.52227 15.6271C5.97557 14.4041 5.85389 13.0333 6.1766 11.7332C6.49931 10.433 7.24785 9.27821 8.30297 8.45279C9.35809 7.62737 10.6591 7.1788 11.9987 7.17853C12.317 7.17853 12.6222 7.05211 12.8472 6.82706C13.0723 6.60202 13.1987 6.29679 13.1987 5.97853C13.1987 5.66027 13.0723 5.35505 12.8472 5.13C12.6222 4.90496 12.317 4.77853 11.9987 4.77853C10.1231 4.77882 8.30159 5.40682 6.82433 6.56247C5.34706 7.71812 4.29907 9.33493 3.84731 11.1553C3.39555 12.9757 3.56603 14.8949 4.33157 16.6071C5.09712 18.3193 6.41369 19.7261 8.07152 20.6033C9.72935 21.4805 11.6331 21.7776 13.4793 21.4472C15.3256 21.1169 17.0082 20.1782 18.2591 18.7807C19.51 17.3831 20.2571 15.6071 20.3815 13.7357C20.5059 11.8642 20.0004 10.005 18.9455 8.45413Z" fill="black"/>
<path d="M8.99151 8.93173C8.90657 9.0645 8.84862 9.21269 8.82095 9.36786C8.79328 9.52302 8.79645 9.68212 8.83027 9.83606C8.86409 9.99 8.9279 10.1358 9.01805 10.2651C9.10821 10.3943 9.22295 10.5046 9.35571 10.5895C9.48848 10.6745 9.63668 10.7324 9.79184 10.7601C9.94701 10.7878 10.1061 10.7846 10.26 10.7508C10.414 10.717 10.5598 10.6531 10.689 10.563C10.8183 10.4728 10.9286 10.3581 11.0135 10.2253L13.6859 6.04693C13.8518 5.77888 13.9056 5.45631 13.8355 5.14894C13.7655 4.84158 13.5774 4.5741 13.3118 4.40433C13.0462 4.23456 12.7244 4.17612 12.4161 4.24165C12.1077 4.30718 11.8375 4.49141 11.6639 4.75453L8.99151 8.93173Z" fill="black"/>
<path d="M9.10671 2.49493C8.81734 2.37243 8.49146 2.36833 8.19909 2.48351C7.90672 2.59869 7.6712 2.82396 7.54312 3.11091C7.41505 3.39786 7.40464 3.7236 7.51414 4.01814C7.62363 4.31268 7.84429 4.55253 8.12871 4.68613L12.1847 6.49573C12.3291 6.56356 12.4856 6.60192 12.645 6.60856C12.8044 6.6152 12.9635 6.58998 13.1131 6.53439C13.2626 6.4788 13.3996 6.39394 13.5159 6.28479C13.6323 6.17564 13.7257 6.04438 13.7907 5.89869C13.8558 5.753 13.8911 5.59581 13.8946 5.43631C13.8982 5.27681 13.8699 5.1182 13.8114 4.96976C13.7529 4.82132 13.6654 4.68604 13.5541 4.57181C13.4427 4.45759 13.3096 4.36672 13.1627 4.30453L9.10671 2.49493Z" fill="black"/>
</svg>
