<svg width="24" height="24" viewBox="0 0 24 24" fill="none" xmlns="http://www.w3.org/2000/svg">
<path d="M5.0545 8.45413C5.23368 8.19109 5.51002 8.01 5.82271 7.9507C6.13541 7.89141 6.45886 7.95875 6.7219 8.13793C6.98494 8.31711 7.16603 8.59345 7.22533 8.90615C7.28463 9.21884 7.21728 9.54229 7.0381 9.80533C6.28497 10.9132 5.92425 12.2412 6.01342 13.5779C6.10258 14.9146 6.63651 16.1829 7.53012 17.1809C8.42374 18.179 9.62565 18.8492 10.9444 19.0849C12.2631 19.3206 13.6228 19.1083 14.8068 18.4816C15.9908 17.855 16.9311 16.8501 17.4778 15.6271C18.0244 14.4041 18.1461 13.0333 17.8234 11.7332C17.5007 10.433 16.7522 9.27821 15.697 8.45279C14.6419 7.62737 13.3409 7.1788 12.0013 7.17853C11.683 7.17853 11.3778 7.05211 11.1528 6.82706C10.9277 6.60202 10.8013 6.29679 10.8013 5.97853C10.8013 5.66027 10.9277 5.35505 11.1528 5.13C11.3778 4.90496 11.683 4.77853 12.0013 4.77853C13.8769 4.77882 15.6984 5.40682 17.1757 6.56247C18.653 7.71812 19.701 9.33493 20.1527 11.1553C20.6045 12.9757 20.434 14.8949 19.6684 16.6071C18.9029 18.3193 17.5863 19.7261 15.9285 20.6033C14.2707 21.4805 12.367 21.7776 10.5207 21.4472C8.67441 21.1169 6.9918 20.1782 5.74093 18.7807C4.49006 17.3831 3.7429 15.6071 3.6185 13.7357C3.4941 11.8642 3.99962 10.005 5.0545 8.45413Z" fill="black"/>
<path d="M15.0085 8.93173C15.0934 9.0645 15.1514 9.21269 15.1791 9.36786C15.2067 9.52302 15.2036 9.68212 15.1697 9.83606C15.1359 9.99 15.0721 10.1358 14.982 10.2651C14.8918 10.3943 14.7771 10.5046 14.6443 10.5895C14.5115 10.6745 14.3633 10.7324 14.2082 10.7601C14.053 10.7878 13.8939 10.7846 13.74 10.7508C13.586 10.717 13.4403 10.6531 13.311 10.563C13.1817 10.4728 13.0714 10.3581 12.9865 10.2253L10.3141 6.04693C10.1482 5.77888 10.0945 5.45631 10.1645 5.14894C10.2345 4.84158 10.4226 4.5741 10.6882 4.40433C10.9538 4.23456 11.2756 4.17612 11.584 4.24165C11.8923 4.30718 12.1625 4.49141 12.3361 4.75453L15.0085 8.93173Z" fill="black"/>
<path d="M14.8933 2.49493C15.1827 2.37243 15.5086 2.36833 15.8009 2.48351C16.0933 2.59869 16.3288 2.82396 16.4569 3.11091C16.585 3.39786 16.5954 3.7236 16.4859 4.01814C16.3764 4.31268 16.1557 4.55253 15.8713 4.68613L11.8153 6.49573C11.6709 6.56356 11.5144 6.60192 11.355 6.60856C11.1956 6.6152 11.0365 6.58998 10.8869 6.53439C10.7374 6.4788 10.6004 6.39394 10.4841 6.28479C10.3677 6.17564 10.2743 6.04438 10.2093 5.89869C10.1443 5.753 10.1089 5.59581 10.1054 5.43631C10.1018 5.27681 10.1301 5.1182 10.1886 4.96976C10.2471 4.82132 10.3346 4.68604 10.446 4.57181C10.5573 4.45759 10.6904 4.36672 10.8373 4.30453L14.8933 2.49493Z" fill="black"/>
</svg>
