<svg width="24" height="24" viewBox="0 0 24 24" fill="none" xmlns="http://www.w3.org/2000/svg">
<path fill-rule="evenodd" clip-rule="evenodd" d="M6.42 4.83C6.20674 4.63128 5.92467 4.5231 5.63322 4.52824C5.34177 4.53338 5.06369 4.65145 4.85757 4.85757C4.65145 5.06369 4.53338 5.34176 4.52824 5.63322C4.5231 5.92467 4.63128 6.20674 4.83 6.42L10.41 12L4.83 17.58C4.71947 17.683 4.63082 17.8072 4.56933 17.9452C4.50784 18.0832 4.47478 18.2322 4.47211 18.3832C4.46945 18.5343 4.49724 18.6843 4.55382 18.8244C4.6104 18.9645 4.69462 19.0917 4.80144 19.1986C4.90827 19.3054 5.03552 19.3896 5.17561 19.4462C5.31569 19.5028 5.46573 19.5306 5.61679 19.5279C5.76784 19.5252 5.91681 19.4922 6.05481 19.4307C6.19281 19.3692 6.31701 19.2805 6.42 19.17L12 13.59L17.58 19.17C17.683 19.2805 17.8072 19.3692 17.9452 19.4307C18.0832 19.4922 18.2322 19.5252 18.3832 19.5279C18.5343 19.5306 18.6843 19.5028 18.8244 19.4462C18.9645 19.3896 19.0917 19.3054 19.1986 19.1986C19.3054 19.0917 19.3896 18.9645 19.4462 18.8244C19.5028 18.6843 19.5306 18.5343 19.5279 18.3832C19.5252 18.2322 19.4922 18.0832 19.4307 17.9452C19.3692 17.8072 19.2805 17.683 19.17 17.58L13.59 12L19.17 6.42C19.3687 6.20674 19.4769 5.92467 19.4718 5.63322C19.4666 5.34176 19.3486 5.06369 19.1424 4.85757C18.9363 4.65145 18.6582 4.53338 18.3668 4.52824C18.0753 4.5231 17.7933 4.63128 17.58 4.83L12 10.41L6.42 4.83Z" fill="#140B1F"/>
</svg>
