<svg width="24" height="24" viewBox="0 0 24 24" fill="none" xmlns="http://www.w3.org/2000/svg">
<path d="M6.05714 18.9429H9.14286V13.8C9.14286 13.5086 9.2416 13.2645 9.43909 13.0677C9.63657 12.8709 9.88068 12.7721 10.1714 12.7714H14.2857C14.5771 12.7714 14.8216 12.8702 15.0191 13.0677C15.2166 13.2651 15.315 13.5093 15.3143 13.8V18.9429H18.4V9.68571L12.2286 5.05714L6.05714 9.68571V18.9429ZM4 18.9429V9.68571C4 9.36 4.07303 9.05143 4.21909 8.76C4.36514 8.46857 4.5664 8.22857 4.82286 8.04L10.9943 3.41143C11.3543 3.13714 11.7657 3 12.2286 3C12.6914 3 13.1029 3.13714 13.4629 3.41143L19.6343 8.04C19.8914 8.22857 20.093 8.46857 20.2391 8.76C20.3851 9.05143 20.4578 9.36 20.4571 9.68571V18.9429C20.4571 19.5086 20.2555 19.993 19.8523 20.3962C19.4491 20.7994 18.965 21.0007 18.4 21H14.2857C13.9943 21 13.7502 20.9013 13.5534 20.7038C13.3566 20.5063 13.2578 20.2622 13.2571 19.9714V14.8286H11.2V19.9714C11.2 20.2629 11.1013 20.5073 10.9038 20.7048C10.7063 20.9023 10.4622 21.0007 10.1714 21H6.05714C5.49143 21 5.00731 20.7987 4.6048 20.3962C4.20229 19.9937 4.00069 19.5093 4 18.9429Z" fill="#140B1F"/>
</svg>
