<svg width="24" height="24" viewBox="0 0 24 24" fill="none" xmlns="http://www.w3.org/2000/svg">
<path d="M5.01763 7.74186C4.93176 7.6646 4.83074 7.6042 4.72035 7.56411C4.60996 7.52402 4.49236 7.50503 4.37426 7.50821C4.25615 7.51139 4.13986 7.53668 4.03203 7.58265C3.9242 7.62862 3.82693 7.69436 3.74578 7.77611C3.66463 7.85787 3.60119 7.95404 3.55908 8.05914C3.51697 8.16424 3.49702 8.2762 3.50036 8.38864C3.5037 8.50108 3.53027 8.6118 3.57855 8.71446C3.62684 8.81712 3.69589 8.90973 3.78176 8.98699L11.877 16.2659C12.044 16.4162 12.2651 16.5 12.4949 16.5C12.7248 16.5 12.9459 16.4162 13.1129 16.2659L21.209 8.98699C21.2968 8.91024 21.3676 8.81765 21.4175 8.71461C21.4674 8.61157 21.4952 8.50013 21.4994 8.38675C21.5037 8.27338 21.4842 8.16033 21.4421 8.05418C21.4001 7.94803 21.3363 7.85089 21.2545 7.76841C21.1727 7.68593 21.0745 7.61974 20.9656 7.5737C20.8567 7.52765 20.7392 7.50267 20.6201 7.5002C20.501 7.49773 20.3825 7.51782 20.2716 7.55931C20.1607 7.60079 20.0596 7.66284 19.9741 7.74186L12.4949 14.4659L5.01763 7.74186Z" fill="#140B1F" stroke="#140B1F" stroke-width="0.5"/>
</svg>
