<svg width="24" height="24" viewBox="0 0 24 24" fill="none" xmlns="http://www.w3.org/2000/svg">
<path fill-rule="evenodd" clip-rule="evenodd" d="M6.06442 4.73077C5.88653 4.55896 5.64828 4.46389 5.40098 4.46604C5.15367 4.46819 4.91711 4.56738 4.74223 4.74226C4.56735 4.91713 4.46816 5.1537 4.46601 5.401C4.46386 5.64831 4.55893 5.88656 4.73074 6.06445L17.9355 19.2692C18.1134 19.441 18.3517 19.5361 18.599 19.534C18.8463 19.5318 19.0828 19.4326 19.2577 19.2577C19.4326 19.0829 19.5318 18.8463 19.5339 18.599C19.5361 18.3517 19.441 18.1134 19.2692 17.9355L17.8799 16.5462C19.3495 15.3754 20.436 13.7924 21 12C19.7983 8.17344 16.2236 5.39761 12 5.39761C10.5215 5.39568 9.06335 5.74275 7.74426 6.41061L6.06442 4.73077ZM10.0834 8.74879L11.5114 10.1777C11.8312 10.0928 12.1678 10.0934 12.4873 10.1794C12.8068 10.2654 13.0982 10.4338 13.3322 10.6678C13.5662 10.9018 13.7346 11.1931 13.8206 11.5127C13.9066 11.8322 13.9072 12.1687 13.8222 12.4886L15.2502 13.9166C15.6756 13.196 15.8493 12.3544 15.7441 11.5243C15.6389 10.6942 15.2607 9.9226 14.6691 9.33092C14.0774 8.73923 13.3058 8.36104 12.4756 8.25583C11.6455 8.15062 10.804 8.32343 10.0834 8.74879Z" fill="#140B1F"/>
<path d="M14.3146 18.3166L11.7642 15.7652C10.8471 15.7078 9.98252 15.3176 9.33269 14.6679C8.68285 14.0183 8.29245 13.1538 8.23475 12.2367L4.77038 8.77234C3.97399 9.72149 3.37241 10.8183 3 12C4.20163 15.8265 7.7773 18.6024 12 18.6024C12.7989 18.6024 13.5742 18.5033 14.3146 18.3166Z" fill="#140B1F"/>
</svg>
