<svg width="24" height="24" viewBox="0 0 24 24" fill="none" xmlns="http://www.w3.org/2000/svg">
<path d="M10.9194 19.92C10.9194 20.2064 10.8057 20.4811 10.6031 20.6837C10.4006 20.8862 10.1259 21 9.83951 21H4.07992C3.79351 21 3.51883 20.8862 3.3163 20.6837C3.11378 20.4811 3 20.2064 3 19.92V4.08C3 3.79357 3.11378 3.51886 3.3163 3.31632C3.51883 3.11379 3.79351 3 4.07992 3H9.83951C10.1259 3 10.4006 3.11379 10.6031 3.31632C10.8057 3.51886 10.9194 3.79357 10.9194 4.08C10.9194 4.36643 10.8057 4.64114 10.6031 4.84368C10.4006 5.04621 10.1259 5.16 9.83951 5.16H5.15984V18.84H9.83951C10.1259 18.84 10.4006 18.9538 10.6031 19.1563C10.8057 19.3589 10.9194 19.6336 10.9194 19.92ZM20.6828 11.2359L17.0831 7.6359C16.8802 7.43301 16.605 7.31903 16.3181 7.31903C16.0312 7.31903 15.7561 7.43301 15.5532 7.6359C15.3503 7.83879 15.2363 8.11397 15.2363 8.4009C15.2363 8.68783 15.3503 8.96301 15.5532 9.1659L17.309 10.92H9.83951C9.55309 10.92 9.27841 11.0338 9.07589 11.2363C8.87336 11.4389 8.75958 11.7136 8.75958 12C8.75958 12.2864 8.87336 12.5611 9.07589 12.7637C9.27841 12.9662 9.55309 13.08 9.83951 13.08H17.309L15.5523 14.8359C15.3494 15.0388 15.2354 15.314 15.2354 15.6009C15.2354 15.8878 15.3494 16.163 15.5523 16.3659C15.7552 16.5688 16.0303 16.6828 16.3172 16.6828C16.6041 16.6828 16.8793 16.5688 17.0822 16.3659L20.6819 12.7659C20.7827 12.6656 20.8626 12.5464 20.9172 12.4152C20.9718 12.284 20.9999 12.1432 21 12.0011C21.0001 11.8589 20.9721 11.7182 20.9177 11.5869C20.8633 11.4556 20.7834 11.3363 20.6828 11.2359Z" fill="black"/>
</svg>
