<svg width="24" height="24" viewBox="0 0 24 24" fill="none" xmlns="http://www.w3.org/2000/svg">
<path d="M19.9824 16.2581C20.0682 16.3354 20.1693 16.3958 20.2796 16.4359C20.39 16.476 20.5076 16.495 20.6257 16.4918C20.7438 16.4886 20.8601 16.4633 20.968 16.4173C21.0758 16.3714 21.1731 16.3056 21.2542 16.2239C21.3354 16.1421 21.3988 16.046 21.4409 15.9409C21.483 15.8358 21.503 15.7238 21.4996 15.6114C21.4963 15.4989 21.4697 15.3882 21.4214 15.2855C21.3732 15.1829 21.3041 15.0903 21.2182 15.013L13.123 7.73408C12.956 7.58376 12.7349 7.5 12.5051 7.5C12.2752 7.5 12.0541 7.58376 11.8871 7.73408L3.79097 15.013C3.70322 15.0898 3.63235 15.1823 3.5825 15.2854C3.53265 15.3884 3.5048 15.4999 3.50057 15.6132C3.49634 15.7266 3.51581 15.8397 3.55786 15.9458C3.5999 16.052 3.66368 16.1491 3.74549 16.2316C3.82731 16.3141 3.92552 16.3803 4.03442 16.4263C4.14333 16.4723 4.26076 16.4973 4.37989 16.4998C4.49902 16.5023 4.61748 16.4822 4.72839 16.4407C4.8393 16.3992 4.94044 16.3372 5.02595 16.2581L12.5051 9.53411L19.9824 16.2581Z" fill="#140B1F" stroke="#140B1F" stroke-width="0.5"/>
</svg>
