<svg width="24" height="24" viewBox="0 0 24 24" fill="none" xmlns="http://www.w3.org/2000/svg">
<path d="M4 20C3.45 20 2.97933 19.8043 2.588 19.413C2.19667 19.0217 2.00067 18.5507 2 18V6C2 5.45 2.196 4.97933 2.588 4.588C2.98 4.19667 3.45067 4.00067 4 4H9.175C9.44167 4 9.696 4.05 9.938 4.15C10.18 4.25 10.3923 4.39167 10.575 4.575L12 6H20C20.55 6 21.021 6.196 21.413 6.588C21.805 6.98 22.0007 7.45067 22 8V18C22 18.55 21.8043 19.021 21.413 19.413C21.0217 19.805 20.5507 20.0007 20 20H4ZM4 18H20V8H11.175L9.175 6H4V18ZM12 17C12.2833 17 12.521 16.904 12.713 16.712C12.905 16.52 13.0007 16.2827 13 16V12.8L13.9 13.7C14.0833 13.8833 14.3167 13.975 14.6 13.975C14.8833 13.975 15.1167 13.8833 15.3 13.7C15.4833 13.5167 15.575 13.2833 15.575 13C15.575 12.7167 15.4833 12.4833 15.3 12.3L12.7 9.7C12.5 9.5 12.2667 9.4 12 9.4C11.7333 9.4 11.5 9.5 11.3 9.7L8.7 12.3C8.51667 12.4833 8.425 12.7167 8.425 13C8.425 13.2833 8.51667 13.5167 8.7 13.7C8.88333 13.8833 9.11667 13.975 9.4 13.975C9.68333 13.975 9.91667 13.8833 10.1 13.7L11 12.8V16C11 16.2833 11.096 16.521 11.288 16.713C11.48 16.905 11.7173 17.0007 12 17Z" fill="#140B1F"/>
</svg>
