<svg width="582" height="185" viewBox="0 0 582 185" fill="none" xmlns="http://www.w3.org/2000/svg">
<g clip-path="url(#clip0_594_1427)">
<path d="M439.335 44H526.806C536.359 44 544.111 51.7254 544.111 61.2453V148.415C544.111 157.934 536.359 165.66 526.806 165.66H523.052L528.698 184L488.259 165.66H439.305C429.752 165.66 422 157.934 422 148.415V61.2453C422 51.7254 429.752 44 439.305 44H439.335Z" fill="#333C8C"/>
</g>
<g clip-path="url(#clip1_594_1427)">
<path d="M408.745 0H296.255C283.969 0 274 9.93265 274 22.1725V134.247C274 146.487 283.969 156.42 296.255 156.42H301.082L293.821 180L345.827 156.42H408.784C421.07 156.42 431.039 146.487 431.039 134.247V22.1725C431.039 9.93265 421.07 0 408.784 0H408.745Z" fill="#8181F3"/>
</g>
<path d="M34.7627 147.416C27.5621 147.416 20.7616 146.057 14.4411 143.298C9.64074 141.219 5.60043 138.82 2.32018 136.101C0.440034 134.542 -0.360027 132.023 0.200015 129.624L2.24017 121.348C3.40026 116.55 9.24071 114.99 12.921 118.309C14.4811 119.708 16.1612 121.028 18.0014 122.267C23.5218 125.946 29.3622 127.785 35.6027 127.785C40.8431 127.785 45.0434 126.306 48.1237 123.307C51.2439 120.348 52.804 116.67 52.804 112.312C52.804 108.833 52.004 105.994 50.4039 103.795C48.8037 101.596 46.9236 99.7571 44.8034 98.3977C42.6833 97.0383 40.8431 95.9587 39.323 95.279L25.0419 88.0821C21.4016 86.2029 17.7614 83.9639 14.1211 81.365C10.4808 78.7262 7.44057 75.3676 5.00038 71.2494C2.5602 67.1312 1.3201 61.9734 1.3201 55.8561C1.3201 49.2989 2.84022 43.5014 5.84045 38.5435C8.84068 33.5857 13.121 29.6674 18.5614 26.8686C24.0418 24.0698 30.3623 22.6704 37.5629 22.6704C44.7634 22.6704 50.6839 23.7899 56.0843 26.0689C59.6446 27.5483 62.7248 29.1076 65.365 30.7069C67.6852 32.1463 68.7653 34.9451 68.1252 37.584L66.1251 46.0203C65.045 50.5384 59.6446 52.4575 56.0043 49.5788C54.5642 48.4193 53.0441 47.3797 51.4439 46.3802C46.6436 43.4614 41.7232 41.9821 36.6428 41.9821C32.0024 41.9821 28.4422 43.2215 25.922 45.6605C23.4018 48.0994 22.1217 51.1381 22.1217 54.7765C22.1217 57.1755 22.6817 59.2546 23.8018 61.0538C24.9219 62.8131 26.362 64.3724 28.2022 65.6518C30.0423 66.9313 32.0024 68.1307 34.1226 69.1703L48.6437 76.3672C50.8839 77.4467 53.3641 78.8461 56.1643 80.6453C58.9645 82.4446 61.6847 84.6836 64.3649 87.3624C67.0451 90.0413 69.2453 93.3598 70.9654 97.2382C72.6855 101.116 73.5656 105.715 73.5656 111.032C73.5656 117.949 71.9255 124.147 68.6852 129.624C65.445 135.102 60.9647 139.42 55.2042 142.619C49.4838 145.817 42.6433 147.416 34.7227 147.416H34.7627Z" fill="white"/>
<path d="M124.77 146.857C117.489 146.857 110.808 144.977 104.768 141.179C98.7275 137.421 93.8872 132.343 90.2869 126.066C86.6866 119.788 84.8865 112.751 84.8865 104.995C84.8865 97.2381 86.6866 90.361 90.2869 84.0038C93.8872 77.6465 98.6875 72.5687 104.768 68.8104C110.808 65.052 117.489 63.1328 124.77 63.1328C130.01 63.1328 134.85 64.0524 139.291 65.9316C143.731 67.8108 147.531 70.4097 150.612 73.8082V71.4092C150.612 67.8908 153.492 65.012 157.012 65.012H162.492C166.013 65.012 168.893 67.8908 168.893 71.4092V138.58C168.893 142.099 166.013 144.977 162.492 144.977H157.012C153.492 144.977 150.612 142.099 150.612 138.58V136.181C147.491 139.46 143.731 142.059 139.291 143.978C134.85 145.897 130.01 146.857 124.77 146.857ZM127.45 128.345C131.61 128.345 135.41 127.305 138.851 125.226C142.251 123.147 145.011 120.348 147.051 116.83C149.091 113.311 150.131 109.393 150.131 105.035C150.131 100.677 149.091 96.8782 147.051 93.3597C145.011 89.8413 142.291 87.0425 138.851 84.8834C135.41 82.7643 131.57 81.6848 127.33 81.6848C123.089 81.6848 119.329 82.7243 115.929 84.8034C112.489 86.8825 109.768 89.6813 107.728 93.1998C105.688 96.7183 104.648 100.637 104.648 104.995C104.648 109.353 105.688 113.151 107.728 116.67C109.768 120.188 112.489 122.987 115.929 125.146C119.329 127.265 123.209 128.345 127.45 128.345Z" fill="white"/>
<path d="M190.855 175.724L211.336 134.782C212.216 132.982 212.256 130.903 211.336 129.104L184.334 74.2477C182.254 70.0096 185.334 65.0117 190.095 65.0117H199.015C201.455 65.0117 203.696 66.4111 204.776 68.6102L217.817 95.6385C219.137 98.3973 220.337 100.956 221.417 103.355C222.497 105.754 223.417 108.233 224.217 110.832C225.097 108.273 226.097 105.754 227.217 103.355C228.337 100.956 229.578 98.3973 231.018 95.6385L244.339 68.5702C245.419 66.3711 247.659 65.0117 250.099 65.0117H258.06C262.82 65.0117 265.9 70.0096 263.78 74.2477L210.536 181.401C209.456 183.56 207.216 184.96 204.816 184.96H196.615C191.855 184.96 188.774 179.962 190.895 175.684L190.855 175.724Z" fill="white"/>
<path d="M485.277 147.416C476.476 147.416 468.676 145.537 461.875 141.819C455.075 138.1 449.794 132.942 445.994 126.425C442.234 119.908 440.314 112.511 440.314 104.235C440.314 95.9584 442.154 89.2413 445.834 82.964C449.514 76.6867 454.515 71.7289 460.835 68.0904C467.156 64.452 474.116 62.6128 481.757 62.6128C489.397 62.6128 496.598 64.412 502.758 68.0105C508.919 71.6089 513.839 76.4868 517.48 82.6041C521.12 88.7215 522.96 95.7185 522.96 103.515V104.715C522.96 108.233 520.08 111.112 516.56 111.112H473.236C470.996 111.112 468.836 110.992 466.716 110.712C464.596 110.432 462.435 110.152 460.315 109.792C461.395 115.55 464.195 120.308 468.716 124.066C473.236 127.825 478.957 129.664 485.797 129.664C490.878 129.664 495.438 128.584 499.518 126.465C500.518 125.945 501.478 125.386 502.358 124.826C506.119 122.427 511.079 124.306 512.119 128.624L513.399 133.782C514.079 136.461 512.919 139.34 510.559 140.779C507.599 142.578 504.399 144.018 500.998 145.097C496.038 146.656 490.758 147.416 485.277 147.416ZM467.676 84.4434C463.075 88.2417 466.236 95.6385 472.196 95.5585C472.556 95.5585 472.916 95.5585 473.276 95.5585H490.477C492.878 95.5585 495.158 95.6385 497.278 95.8384C499.398 95.9984 501.438 96.2782 503.398 96.6381C502.078 91.4803 499.478 87.3621 495.598 84.2434C491.718 81.1248 487.077 79.5655 481.677 79.5655C476.276 79.5655 471.716 81.1648 467.796 84.3634C467.796 84.3634 467.716 84.4434 467.676 84.4434Z" fill="white"/>
<path d="M412.142 51.715C417.586 51.715 422 47.3017 422 41.8575C422 36.4134 417.586 32 412.142 32C406.698 32 402.284 36.4134 402.284 41.8575C402.284 47.3017 406.698 51.715 412.142 51.715Z" fill="white"/>
<path d="M386.022 82.6071C385.207 84.7804 384.431 86.9537 383.616 89.2435C382.801 91.4944 381.947 94.2887 380.977 97.5486C380.084 94.2887 379.192 91.4944 378.221 89.2435C377.251 86.9537 376.359 84.7416 375.466 82.6071L362.581 50.5508C359.359 42.5561 348.065 42.5949 344.883 50.5508L332.153 82.5683C331.26 84.7416 330.407 86.9149 329.514 89.2047C328.621 91.4556 327.729 94.2499 326.758 97.5098C325.788 94.2499 324.934 91.4556 324.197 89.2047C323.421 86.9149 322.606 84.7028 321.752 82.5683L304.403 38.0542C302.967 34.4062 299.474 32 295.516 32C288.801 32 284.222 38.7528 286.667 45.0011L316.357 120.951C319.501 128.984 330.833 129.023 334.055 121.028L348.065 86.0611C348.88 83.9266 349.695 81.7145 350.588 79.4248C351.481 77.135 352.373 74.3796 353.344 71.1196C354.236 74.3796 355.09 77.1738 355.983 79.5024C356.875 81.8309 357.729 84.0042 358.622 86.0611L372.516 120.951C375.699 128.984 387.07 128.945 390.214 120.873L413.268 61.9218C413.772 60.6411 413.112 59.2052 411.832 58.7007L399.645 54.1212C398.364 53.6555 396.967 54.2764 396.462 55.5571L385.984 82.6071H386.022Z" fill="white"/>
<defs>
<clipPath id="clip0_594_1427">
<rect width="122.111" height="140" fill="white" transform="translate(422 44)"/>
</clipPath>
<clipPath id="clip1_594_1427">
<rect width="157" height="180" fill="white" transform="translate(274)"/>
</clipPath>
</defs>
</svg>
