<svg width="24" height="24" viewBox="0 0 24 24" fill="none" xmlns="http://www.w3.org/2000/svg">
<path fill-rule="evenodd" clip-rule="evenodd" d="M8.00001 2.1C8.49706 2.1 8.90001 2.50294 8.90001 3V4.1H11.1V3C11.1 2.50294 11.5029 2.1 12 2.1C12.4971 2.1 12.9 2.50294 12.9 3V4.1H15.1V3C15.1 2.50294 15.5029 2.1 16 2.1C16.4971 2.1 16.9 2.50294 16.9 3V4.1H18C18.7691 4.1 19.5068 4.40554 20.0506 4.94939C20.5945 5.49325 20.9 6.23087 20.9 7V19C20.9 19.7691 20.5945 20.5068 20.0506 21.0506C19.5068 21.5945 18.7691 21.9 18 21.9H6.00001C5.23088 21.9 4.49325 21.5945 3.9494 21.0506C3.40554 20.5068 3.10001 19.7691 3.10001 19V7C3.10001 6.23087 3.40554 5.49325 3.9494 4.94939C4.49325 4.40553 5.23088 4.1 6.00001 4.1H7.10001V3C7.10001 2.50294 7.50295 2.1 8.00001 2.1ZM7.10001 5.9H6.00001C5.70827 5.9 5.42848 6.01589 5.22219 6.22218C5.0159 6.42847 4.90001 6.70826 4.90001 7V19C4.90001 19.2917 5.0159 19.5715 5.22219 19.7778C5.42848 19.9841 5.70827 20.1 6.00001 20.1H18C18.2917 20.1 18.5715 19.9841 18.7778 19.7778C18.9841 19.5715 19.1 19.2917 19.1 19V7C19.1 6.70826 18.9841 6.42847 18.7778 6.22218C18.5715 6.01589 18.2917 5.9 18 5.9H16.9V7C16.9 7.49706 16.4971 7.9 16 7.9C15.5029 7.9 15.1 7.49706 15.1 7V5.9H12.9V7C12.9 7.49706 12.4971 7.9 12 7.9C11.5029 7.9 11.1 7.49706 11.1 7V5.9H8.90001V7C8.90001 7.49706 8.49706 7.9 8.00001 7.9C7.50295 7.9 7.10001 7.49706 7.10001 7V5.9ZM7.10001 11C7.10001 10.5029 7.50295 10.1 8.00001 10.1H16C16.4971 10.1 16.9 10.5029 16.9 11C16.9 11.4971 16.4971 11.9 16 11.9H8.00001C7.50295 11.9 7.10001 11.4971 7.10001 11ZM7.10001 15C7.10001 14.5029 7.50295 14.1 8.00001 14.1H12C12.4971 14.1 12.9 14.5029 12.9 15C12.9 15.4971 12.4971 15.9 12 15.9H8.00001C7.50295 15.9 7.10001 15.4971 7.10001 15Z" fill="#140B1F"/>
</svg>
